<svg width="172" height="30" viewBox="0 0 172 30" fill="none" xmlns="http://www.w3.org/2000/svg">
<path d="M21.6767 0V3.69119H24.2461V29.4934H29.4813V0H21.6767Z" fill="#603ED7"/>
<path d="M38.4077 7.37033V29.4934H33.1725V9.67431L34.9819 7.37033H38.4077Z" fill="#603ED7"/>
<path d="M78.0579 16.9843L85.5489 7.45476L80.0482 7.46683L71.6767 18.1182V0H66.4415V29.5657L71.6767 29.4934V19.1556H73.9083L81.4837 29.4451L87.5151 29.5657L78.0579 16.9843Z" fill="#603ED7"/>
<path d="M116.514 7.33414L111.966 24.041C111.906 24.2581 111.701 24.415 111.472 24.415C111.23 24.415 111.025 24.2461 110.977 24.0169L107.563 8.93848H101.532L98.5766 24.0048C98.5283 24.2461 98.3233 24.415 98.082 24.415C97.8649 24.415 97.6598 24.2702 97.5995 24.0531L92.6055 7.3462H87.5271L94.0048 29.5537H101.496L104.499 14.041L107.901 29.5537H115.392L121.255 7.32208H116.514V7.33414Z" fill="#603ED7"/>
<path d="M160.109 6.69481C157.696 6.69481 155.452 7.4427 153.607 8.70929V0H148.372V29.4934H152.509V26.8516C154.536 28.6369 157.189 29.7105 160.109 29.7105C166.466 29.7105 171.616 24.5597 171.616 18.2027C171.616 11.8456 166.466 6.69481 160.109 6.69481ZM167.25 18.2027C167.25 22.1472 164.053 25.3438 160.109 25.3438C156.164 25.3438 152.967 22.1472 152.967 18.2027C152.967 14.2581 156.164 11.0615 160.109 11.0615C164.053 11.0615 167.25 14.2581 167.25 18.2027Z" fill="#603ED7"/>
<path d="M17.6598 22.1592L20.4946 25.766C18.3715 28.3474 15.1628 29.9879 11.5561 29.9879C9.79493 29.9879 8.13028 29.5899 6.6345 28.8902C2.71411 27.0446 0 23.0519 0 18.4318C0 13.8118 2.66586 9.89144 6.538 8.02171C8.0579 7.28589 9.75875 6.87575 11.5561 6.87575C15.199 6.87575 18.4439 8.55247 20.5549 11.1821L17.7443 14.7648H17.684C16.4415 12.69 14.1616 11.2907 11.5561 11.2907C10.7961 11.2907 10.0603 11.4113 9.37274 11.6285C6.50181 12.5452 4.41496 15.2473 4.41496 18.4318C4.41496 21.6164 6.55006 24.3788 9.4813 25.2714C10.1327 25.4765 10.8323 25.573 11.5561 25.573C14.1375 25.573 16.3932 24.2099 17.6478 22.1592H17.6598Z" fill="#603ED7"/>
<path d="M62.7382 25.6815C60.6152 28.3112 57.3703 29.9879 53.7394 29.9879C51.9542 29.9879 50.2654 29.5778 48.7455 28.854C44.8613 26.9964 42.1833 23.0277 42.1833 18.4318C42.1833 13.8359 44.8975 9.81906 48.8179 7.97346C50.3136 7.27382 51.9783 6.87575 53.7394 6.87575C57.3462 6.87575 60.579 8.52835 62.69 11.1218L59.8552 14.7286C58.6007 12.6659 56.3329 11.2787 53.7394 11.2787C53.0157 11.2787 52.3281 11.3872 51.6647 11.5802C48.7334 12.4729 46.5983 15.187 46.5983 18.4198C46.5983 21.6526 48.6972 24.3185 51.5923 25.2352C52.2678 25.4524 52.9916 25.5609 53.7394 25.5609C56.3329 25.5609 58.6128 24.1737 59.8552 22.111H59.9397L62.7382 25.6695V25.6815Z" fill="#603ED7"/>
<path d="M38.4077 0V3.01568L36.6586 5.23522H33.1725V0H38.4077Z" fill="#603ED7"/>
<path d="M139.831 22.123C138.577 24.1978 136.309 25.573 133.715 25.573C131.255 25.573 129.095 24.3305 127.805 22.4487C127.805 22.4487 127.805 22.4367 127.793 22.4246L144.379 14.7768L144.632 14.6562C144.27 13.6188 143.764 12.6417 143.136 11.7612C142.931 11.4717 142.702 11.1821 142.473 10.9168C140.35 8.45597 137.214 6.88782 133.703 6.88782C131.93 6.88782 130.253 7.28589 128.758 7.99759C124.849 9.85525 122.147 13.8359 122.147 18.4439C122.147 19.0591 122.195 19.6622 122.292 20.2533C122.352 20.6031 122.413 20.9409 122.497 21.2787C122.762 22.3522 123.185 23.3655 123.739 24.2943C123.739 24.2943 123.739 24.3185 123.752 24.3305C125.766 27.7322 129.469 30 133.703 30C137.334 30 140.567 28.3233 142.69 25.7057C143.546 24.6441 144.222 23.4379 144.656 22.123H139.819H139.831ZM131.616 11.6043C132.28 11.3993 132.979 11.2907 133.715 11.2907C135.416 11.2907 136.984 11.8818 138.203 12.883L126.574 18.263C126.647 15.1267 128.745 12.4849 131.616 11.6043Z" fill="#603ED7"/>
</svg>
